<?xml version="1.0" encoding="utf-8" standalone="no"?>
<!DOCTYPE svg PUBLIC "-//W3C//DTD SVG 1.1//EN"
  "http://www.w3.org/Graphics/SVG/1.1/DTD/svg11.dtd">
<!-- Created with matplotlib (http://matplotlib.org/) -->
<svg height="294.276234pt" version="1.1" viewBox="0 0 313.940625 294.276234" width="313.940625pt" xmlns="http://www.w3.org/2000/svg" xmlns:xlink="http://www.w3.org/1999/xlink">
 <defs>
  <style type="text/css">
*{stroke-linecap:butt;stroke-linejoin:round;}
  </style>
 </defs>
 <g id="figure_1">
  <g id="patch_1">
   <path d="M 0 294.276234 
L 313.940625 294.276234 
L 313.940625 0 
L 0 0 
z
" style="fill:#ffffff;"/>
  </g>
  <g id="axes_1">
   <g id="patch_2">
    <path d="M 72.481625 233.300953 
L 291.008825 233.300953 
L 291.008825 15.860953 
L 72.481625 15.860953 
z
" style="fill:#ffffff;"/>
   </g>
   <g id="matplotlib.axis_1">
    <g id="xtick_1">
     <g id="line2d_1">
      <defs>
       <path d="M 0 0 
L 0 -12 
" id="ma6cfa3ab4c" style="stroke:#262626;stroke-width:2.5;"/>
      </defs>
      <g>
       <use style="fill:#262626;stroke:#262626;stroke-width:2.5;" x="72.481625" xlink:href="#ma6cfa3ab4c" y="233.300953"/>
      </g>
     </g>
     <g id="text_1">
      <!-- 0.0 -->
      <defs>
       <path d="M 4.15625 35.296875 
Q 4.15625 48 6.765625 55.734375 
Q 9.375 63.484375 14.515625 67.671875 
Q 19.671875 71.875 27.484375 71.875 
Q 33.25 71.875 37.59375 69.546875 
Q 41.9375 67.234375 44.765625 62.859375 
Q 47.609375 58.5 49.21875 52.21875 
Q 50.828125 45.953125 50.828125 35.296875 
Q 50.828125 22.703125 48.234375 14.96875 
Q 45.65625 7.234375 40.5 3 
Q 35.359375 -1.21875 27.484375 -1.21875 
Q 17.140625 -1.21875 11.234375 6.203125 
Q 4.15625 15.140625 4.15625 35.296875 
z
M 13.1875 35.296875 
Q 13.1875 17.671875 17.3125 11.828125 
Q 21.4375 6 27.484375 6 
Q 33.546875 6 37.671875 11.859375 
Q 41.796875 17.71875 41.796875 35.296875 
Q 41.796875 52.984375 37.671875 58.78125 
Q 33.546875 64.59375 27.390625 64.59375 
Q 21.34375 64.59375 17.71875 59.46875 
Q 13.1875 52.9375 13.1875 35.296875 
z
" id="ArialMT-30"/>
       <path d="M 9.078125 0 
L 9.078125 10.015625 
L 19.09375 10.015625 
L 19.09375 0 
z
" id="ArialMT-2e"/>
      </defs>
      <g style="fill:#262626;" transform="translate(55.662625 254.122859)scale(0.242 -0.242)">
       <use xlink:href="#ArialMT-30"/>
       <use x="55.615234" xlink:href="#ArialMT-2e"/>
       <use x="83.398438" xlink:href="#ArialMT-30"/>
      </g>
     </g>
    </g>
    <g id="xtick_2">
     <g id="line2d_2">
      <g>
       <use style="fill:#262626;stroke:#262626;stroke-width:2.5;" x="181.201625" xlink:href="#ma6cfa3ab4c" y="233.300953"/>
      </g>
     </g>
     <g id="text_2">
      <!-- 0.5 -->
      <defs>
       <path d="M 4.15625 18.75 
L 13.375 19.53125 
Q 14.40625 12.796875 18.140625 9.390625 
Q 21.875 6 27.15625 6 
Q 33.5 6 37.890625 10.78125 
Q 42.28125 15.578125 42.28125 23.484375 
Q 42.28125 31 38.0625 35.34375 
Q 33.84375 39.703125 27 39.703125 
Q 22.75 39.703125 19.328125 37.765625 
Q 15.921875 35.84375 13.96875 32.765625 
L 5.71875 33.84375 
L 12.640625 70.609375 
L 48.25 70.609375 
L 48.25 62.203125 
L 19.671875 62.203125 
L 15.828125 42.96875 
Q 22.265625 47.46875 29.34375 47.46875 
Q 38.71875 47.46875 45.15625 40.96875 
Q 51.609375 34.46875 51.609375 24.265625 
Q 51.609375 14.546875 45.953125 7.46875 
Q 39.0625 -1.21875 27.15625 -1.21875 
Q 17.390625 -1.21875 11.203125 4.25 
Q 5.03125 9.71875 4.15625 18.75 
z
" id="ArialMT-35"/>
      </defs>
      <g style="fill:#262626;" transform="translate(164.382625 254.122859)scale(0.242 -0.242)">
       <use xlink:href="#ArialMT-30"/>
       <use x="55.615234" xlink:href="#ArialMT-2e"/>
       <use x="83.398438" xlink:href="#ArialMT-35"/>
      </g>
     </g>
    </g>
    <g id="xtick_3">
     <g id="line2d_3">
      <g>
       <use style="fill:#262626;stroke:#262626;stroke-width:2.5;" x="289.921625" xlink:href="#ma6cfa3ab4c" y="233.300953"/>
      </g>
     </g>
     <g id="text_3">
      <!-- 1.0 -->
      <defs>
       <path d="M 37.25 0 
L 28.46875 0 
L 28.46875 56 
Q 25.296875 52.984375 20.140625 49.953125 
Q 14.984375 46.921875 10.890625 45.40625 
L 10.890625 53.90625 
Q 18.265625 57.375 23.78125 62.296875 
Q 29.296875 67.234375 31.59375 71.875 
L 37.25 71.875 
z
" id="ArialMT-31"/>
      </defs>
      <g style="fill:#262626;" transform="translate(273.102625 254.122859)scale(0.242 -0.242)">
       <use xlink:href="#ArialMT-31"/>
       <use x="55.615234" xlink:href="#ArialMT-2e"/>
       <use x="83.398438" xlink:href="#ArialMT-30"/>
      </g>
     </g>
    </g>
    <g id="text_4">
     <!-- AUC$_{OFF}$ -->
     <defs>
      <path d="M -0.140625 0 
L 27.34375 71.578125 
L 37.546875 71.578125 
L 66.84375 0 
L 56.0625 0 
L 47.703125 21.6875 
L 17.78125 21.6875 
L 9.90625 0 
z
M 20.515625 29.390625 
L 44.78125 29.390625 
L 37.3125 49.21875 
Q 33.890625 58.25 32.234375 64.0625 
Q 30.859375 57.171875 28.375 50.390625 
z
" id="ArialMT-41"/>
      <path d="M 54.6875 71.578125 
L 64.15625 71.578125 
L 64.15625 30.21875 
Q 64.15625 19.4375 61.71875 13.078125 
Q 59.28125 6.734375 52.90625 2.75 
Q 46.53125 -1.21875 36.1875 -1.21875 
Q 26.125 -1.21875 19.71875 2.25 
Q 13.328125 5.71875 10.59375 12.28125 
Q 7.859375 18.84375 7.859375 30.21875 
L 7.859375 71.578125 
L 17.328125 71.578125 
L 17.328125 30.28125 
Q 17.328125 20.953125 19.0625 16.53125 
Q 20.796875 12.109375 25.015625 9.71875 
Q 29.25 7.328125 35.359375 7.328125 
Q 45.796875 7.328125 50.234375 12.0625 
Q 54.6875 16.796875 54.6875 30.28125 
z
" id="ArialMT-55"/>
      <path d="M 58.796875 25.09375 
L 68.265625 22.703125 
Q 65.28125 11.03125 57.546875 4.90625 
Q 49.8125 -1.21875 38.625 -1.21875 
Q 27.046875 -1.21875 19.796875 3.484375 
Q 12.546875 8.203125 8.765625 17.140625 
Q 4.984375 26.078125 4.984375 36.328125 
Q 4.984375 47.515625 9.25 55.828125 
Q 13.53125 64.15625 21.40625 68.46875 
Q 29.296875 72.796875 38.765625 72.796875 
Q 49.515625 72.796875 56.828125 67.328125 
Q 64.15625 61.859375 67.046875 51.953125 
L 57.71875 49.75 
Q 55.21875 57.5625 50.484375 61.125 
Q 45.75 64.703125 38.578125 64.703125 
Q 30.328125 64.703125 24.78125 60.734375 
Q 19.234375 56.78125 16.984375 50.109375 
Q 14.75 43.453125 14.75 36.375 
Q 14.75 27.25 17.40625 20.4375 
Q 20.0625 13.625 25.671875 10.25 
Q 31.296875 6.890625 37.84375 6.890625 
Q 45.796875 6.890625 51.3125 11.46875 
Q 56.84375 16.0625 58.796875 25.09375 
z
" id="ArialMT-43"/>
      <path d="M 45.609375 66.21875 
Q 37.5 66.21875 31.296875 62.28125 
Q 25.09375 58.34375 20.515625 50.296875 
Q 17.578125 45.171875 16.03125 39.40625 
Q 14.5 33.640625 14.5 27.78125 
Q 14.5 17.625 19.359375 12.109375 
Q 24.21875 6.59375 33.109375 6.59375 
Q 41.109375 6.59375 47.375 10.5625 
Q 53.65625 14.546875 58.109375 22.40625 
Q 61.078125 27.6875 62.640625 33.46875 
Q 64.203125 39.265625 64.203125 45.015625 
Q 64.203125 55.125 59.3125 60.671875 
Q 54.4375 66.21875 45.609375 66.21875 
z
M 32.8125 -1.421875 
Q 19.390625 -1.421875 11.6875 6.53125 
Q 4 14.5 4 28.328125 
Q 4 36.234375 7 44.484375 
Q 10.015625 52.734375 15.28125 59.1875 
Q 21.484375 66.75 29.09375 70.484375 
Q 36.71875 74.21875 45.90625 74.21875 
Q 59.28125 74.21875 66.984375 66.328125 
Q 74.703125 58.453125 74.703125 44.828125 
Q 74.703125 36.421875 71.765625 28.3125 
Q 68.84375 20.21875 63.375 13.625 
Q 57.125 6 49.578125 2.28125 
Q 42.046875 -1.421875 32.8125 -1.421875 
z
" id="DejaVuSans-Oblique-4f"/>
      <path d="M 16.890625 72.90625 
L 58.6875 72.90625 
L 57.078125 64.59375 
L 25.09375 64.59375 
L 20.90625 43.109375 
L 49.8125 43.109375 
L 48.1875 34.8125 
L 19.28125 34.8125 
L 12.5 0 
L 2.6875 0 
z
" id="DejaVuSans-Oblique-46"/>
     </defs>
     <g style="fill:#262626;" transform="translate(135.413225 281.829234)scale(0.264 -0.264)">
      <use transform="translate(0 0.203125)" xlink:href="#ArialMT-41"/>
      <use transform="translate(66.699219 0.203125)" xlink:href="#ArialMT-55"/>
      <use transform="translate(138.916016 0.203125)" xlink:href="#ArialMT-43"/>
      <use transform="translate(212.089844 -16.203125)scale(0.7)" xlink:href="#DejaVuSans-Oblique-4f"/>
      <use transform="translate(267.1875 -16.203125)scale(0.7)" xlink:href="#DejaVuSans-Oblique-46"/>
      <use transform="translate(307.451172 -16.203125)scale(0.7)" xlink:href="#DejaVuSans-Oblique-46"/>
     </g>
    </g>
   </g>
   <g id="matplotlib.axis_2">
    <g id="ytick_1">
     <g id="line2d_4">
      <defs>
       <path d="M 0 0 
L 12 0 
" id="m3a9f4b98db" style="stroke:#262626;stroke-width:2.5;"/>
      </defs>
      <g>
       <use style="fill:#262626;stroke:#262626;stroke-width:2.5;" x="72.481625" xlink:href="#m3a9f4b98db" y="124.580953"/>
      </g>
     </g>
     <g id="text_5">
      <!-- 0.5 -->
      <g style="fill:#262626;" transform="translate(35.343625 133.241906)scale(0.242 -0.242)">
       <use xlink:href="#ArialMT-30"/>
       <use x="55.615234" xlink:href="#ArialMT-2e"/>
       <use x="83.398438" xlink:href="#ArialMT-35"/>
      </g>
     </g>
    </g>
    <g id="ytick_2">
     <g id="line2d_5">
      <g>
       <use style="fill:#262626;stroke:#262626;stroke-width:2.5;" x="72.481625" xlink:href="#m3a9f4b98db" y="15.860953"/>
      </g>
     </g>
     <g id="text_6">
      <!-- 1.0 -->
      <g style="fill:#262626;" transform="translate(35.343625 24.521906)scale(0.242 -0.242)">
       <use xlink:href="#ArialMT-31"/>
       <use x="55.615234" xlink:href="#ArialMT-2e"/>
       <use x="83.398438" xlink:href="#ArialMT-30"/>
      </g>
     </g>
    </g>
    <g id="text_7">
     <!-- AUC$_{ON}$ -->
     <defs>
      <path d="M 16.890625 72.90625 
L 30.171875 72.90625 
L 50.296875 10.40625 
L 62.5 72.90625 
L 72.125 72.90625 
L 57.90625 0 
L 44.578125 0 
L 24.515625 62.890625 
L 12.3125 0 
L 2.6875 0 
z
" id="DejaVuSans-Oblique-4e"/>
     </defs>
     <g style="fill:#262626;" transform="translate(26.096625 167.216953)rotate(-90)scale(0.264 -0.264)">
      <use transform="translate(0 0.203125)" xlink:href="#ArialMT-41"/>
      <use transform="translate(66.699219 0.203125)" xlink:href="#ArialMT-55"/>
      <use transform="translate(138.916016 0.203125)" xlink:href="#ArialMT-43"/>
      <use transform="translate(212.089844 -16.203125)scale(0.7)" xlink:href="#DejaVuSans-Oblique-4f"/>
      <use transform="translate(267.1875 -16.203125)scale(0.7)" xlink:href="#DejaVuSans-Oblique-4e"/>
     </g>
    </g>
   </g>
   <g id="line2d_6">
    <defs>
     <path d="M 0 2.5 
C 0.663008 2.5 1.29895 2.236584 1.767767 1.767767 
C 2.236584 1.29895 2.5 0.663008 2.5 0 
C 2.5 -0.663008 2.236584 -1.29895 1.767767 -1.767767 
C 1.29895 -2.236584 0.663008 -2.5 0 -2.5 
C -0.663008 -2.5 -1.29895 -2.236584 -1.767767 -1.767767 
C -2.236584 -1.29895 -2.5 -0.663008 -2.5 0 
C -2.5 0.663008 -2.236584 1.29895 -1.767767 1.767767 
C -1.29895 2.236584 -0.663008 2.5 0 2.5 
z
" id="meefff5d3b3" style="stroke:#6b8e23;"/>
    </defs>
    <g clip-path="url(#p17e16a551a)">
     <use style="fill:#6b8e23;stroke:#6b8e23;" x="191.459121" xlink:href="#meefff5d3b3" y="128.866937"/>
     <use style="fill:#6b8e23;stroke:#6b8e23;" x="180.350773" xlink:href="#meefff5d3b3" y="60.252537"/>
     <use style="fill:#6b8e23;stroke:#6b8e23;" x="253.996755" xlink:href="#meefff5d3b3" y="176.829369"/>
     <use style="fill:#6b8e23;stroke:#6b8e23;" x="170.282355" xlink:href="#meefff5d3b3" y="127.359353"/>
     <use style="fill:#6b8e23;stroke:#6b8e23;" x="158.93766" xlink:href="#meefff5d3b3" y="119.937401"/>
     <use style="fill:#6b8e23;stroke:#6b8e23;" x="195.996999" xlink:href="#meefff5d3b3" y="43.292217"/>
     <use style="fill:#6b8e23;stroke:#6b8e23;" x="204.60006" xlink:href="#meefff5d3b3" y="91.484974"/>
     <use style="fill:#6b8e23;stroke:#6b8e23;" x="222.231608" xlink:href="#meefff5d3b3" y="64.301753"/>
     <use style="fill:#6b8e23;stroke:#6b8e23;" x="206.349034" xlink:href="#meefff5d3b3" y="71.849337"/>
     <use style="fill:#6b8e23;stroke:#6b8e23;" x="188.575677" xlink:href="#meefff5d3b3" y="85.804153"/>
     <use style="fill:#6b8e23;stroke:#6b8e23;" x="188.197521" xlink:href="#meefff5d3b3" y="94.134521"/>
     <use style="fill:#6b8e23;stroke:#6b8e23;" x="188.895253" xlink:href="#meefff5d3b3" y="124.671362"/>
     <use style="fill:#6b8e23;stroke:#6b8e23;" x="199.767812" xlink:href="#meefff5d3b3" y="124.194711"/>
     <use style="fill:#6b8e23;stroke:#6b8e23;" x="174.303037" xlink:href="#meefff5d3b3" y="114.516228"/>
     <use style="fill:#6b8e23;stroke:#6b8e23;" x="189.689066" xlink:href="#meefff5d3b3" y="128.340662"/>
     <use style="fill:#6b8e23;stroke:#6b8e23;" x="180.886337" xlink:href="#meefff5d3b3" y="155.615571"/>
     <use style="fill:#6b8e23;stroke:#6b8e23;" x="164.797844" xlink:href="#meefff5d3b3" y="132.784371"/>
     <use style="fill:#6b8e23;stroke:#6b8e23;" x="155.34111" xlink:href="#meefff5d3b3" y="186.35368"/>
     <use style="fill:#6b8e23;stroke:#6b8e23;" x="189.954592" xlink:href="#meefff5d3b3" y="88.308008"/>
     <use style="fill:#6b8e23;stroke:#6b8e23;" x="179.976" xlink:href="#meefff5d3b3" y="89.197535"/>
     <use style="fill:#6b8e23;stroke:#6b8e23;" x="189.248918" xlink:href="#meefff5d3b3" y="101.848589"/>
     <use style="fill:#6b8e23;stroke:#6b8e23;" x="183.533696" xlink:href="#meefff5d3b3" y="113.610117"/>
     <use style="fill:#6b8e23;stroke:#6b8e23;" x="169.096861" xlink:href="#meefff5d3b3" y="131.499499"/>
     <use style="fill:#6b8e23;stroke:#6b8e23;" x="223.107331" xlink:href="#meefff5d3b3" y="104.93545"/>
     <use style="fill:#6b8e23;stroke:#6b8e23;" x="157.990637" xlink:href="#meefff5d3b3" y="134.479808"/>
     <use style="fill:#6b8e23;stroke:#6b8e23;" x="170.834615" xlink:href="#meefff5d3b3" y="131.276595"/>
     <use style="fill:#6b8e23;stroke:#6b8e23;" x="287.579963" xlink:href="#meefff5d3b3" y="22.130775"/>
     <use style="fill:#6b8e23;stroke:#6b8e23;" x="229.06619" xlink:href="#meefff5d3b3" y="61.842265"/>
     <use style="fill:#6b8e23;stroke:#6b8e23;" x="210.179687" xlink:href="#meefff5d3b3" y="108.270779"/>
     <use style="fill:#6b8e23;stroke:#6b8e23;" x="246.09729" xlink:href="#meefff5d3b3" y="40.818085"/>
     <use style="fill:#6b8e23;stroke:#6b8e23;" x="267.180746" xlink:href="#meefff5d3b3" y="37.575961"/>
     <use style="fill:#6b8e23;stroke:#6b8e23;" x="246.282532" xlink:href="#meefff5d3b3" y="55.173442"/>
     <use style="fill:#6b8e23;stroke:#6b8e23;" x="181.8975" xlink:href="#meefff5d3b3" y="118.65512"/>
     <use style="fill:#6b8e23;stroke:#6b8e23;" x="168.660064" xlink:href="#meefff5d3b3" y="124.580953"/>
     <use style="fill:#6b8e23;stroke:#6b8e23;" x="181.046808" xlink:href="#meefff5d3b3" y="124.580953"/>
     <use style="fill:#6b8e23;stroke:#6b8e23;" x="177.487159" xlink:href="#meefff5d3b3" y="136.206086"/>
     <use style="fill:#6b8e23;stroke:#6b8e23;" x="200.811431" xlink:href="#meefff5d3b3" y="100.493253"/>
     <use style="fill:#6b8e23;stroke:#6b8e23;" x="184.74896" xlink:href="#meefff5d3b3" y="122.081089"/>
     <use style="fill:#6b8e23;stroke:#6b8e23;" x="180.160329" xlink:href="#meefff5d3b3" y="124.365679"/>
     <use style="fill:#6b8e23;stroke:#6b8e23;" x="184.96699" xlink:href="#meefff5d3b3" y="134.788619"/>
     <use style="fill:#6b8e23;stroke:#6b8e23;" x="176.208163" xlink:href="#meefff5d3b3" y="138.932719"/>
     <use style="fill:#6b8e23;stroke:#6b8e23;" x="262.478461" xlink:href="#meefff5d3b3" y="47.354752"/>
     <use style="fill:#6b8e23;stroke:#6b8e23;" x="161.069873" xlink:href="#meefff5d3b3" y="92.184184"/>
     <use style="fill:#6b8e23;stroke:#6b8e23;" x="170.98118" xlink:href="#meefff5d3b3" y="119.94332"/>
     <use style="fill:#6b8e23;stroke:#6b8e23;" x="268.102218" xlink:href="#meefff5d3b3" y="51.532053"/>
     <use style="fill:#6b8e23;stroke:#6b8e23;" x="262.418324" xlink:href="#meefff5d3b3" y="34.08015"/>
     <use style="fill:#6b8e23;stroke:#6b8e23;" x="261.782798" xlink:href="#meefff5d3b3" y="30.900812"/>
     <use style="fill:#6b8e23;stroke:#6b8e23;" x="277.918937" xlink:href="#meefff5d3b3" y="28.718452"/>
     <use style="fill:#6b8e23;stroke:#6b8e23;" x="236.833649" xlink:href="#meefff5d3b3" y="70.66702"/>
     <use style="fill:#6b8e23;stroke:#6b8e23;" x="269.031286" xlink:href="#meefff5d3b3" y="29.627397"/>
     <use style="fill:#6b8e23;stroke:#6b8e23;" x="170.750554" xlink:href="#meefff5d3b3" y="135.564618"/>
     <use style="fill:#6b8e23;stroke:#6b8e23;" x="183.013625" xlink:href="#meefff5d3b3" y="121.346792"/>
     <use style="fill:#6b8e23;stroke:#6b8e23;" x="183.255225" xlink:href="#meefff5d3b3" y="125.579912"/>
     <use style="fill:#6b8e23;stroke:#6b8e23;" x="175.381907" xlink:href="#meefff5d3b3" y="119.622608"/>
     <use style="fill:#6b8e23;stroke:#6b8e23;" x="181.947743" xlink:href="#meefff5d3b3" y="116.196542"/>
     <use style="fill:#6b8e23;stroke:#6b8e23;" x="189.643413" xlink:href="#meefff5d3b3" y="111.945388"/>
     <use style="fill:#6b8e23;stroke:#6b8e23;" x="183.972919" xlink:href="#meefff5d3b3" y="110.493142"/>
     <use style="fill:#6b8e23;stroke:#6b8e23;" x="183.994237" xlink:href="#meefff5d3b3" y="104.025487"/>
     <use style="fill:#6b8e23;stroke:#6b8e23;" x="257.216564" xlink:href="#meefff5d3b3" y="85.094774"/>
     <use style="fill:#6b8e23;stroke:#6b8e23;" x="243.309538" xlink:href="#meefff5d3b3" y="93.801165"/>
     <use style="fill:#6b8e23;stroke:#6b8e23;" x="217.666613" xlink:href="#meefff5d3b3" y="98.372262"/>
     <use style="fill:#6b8e23;stroke:#6b8e23;" x="221.951931" xlink:href="#meefff5d3b3" y="126.474763"/>
     <use style="fill:#6b8e23;stroke:#6b8e23;" x="189.771109" xlink:href="#meefff5d3b3" y="114.509549"/>
     <use style="fill:#6b8e23;stroke:#6b8e23;" x="174.936683" xlink:href="#meefff5d3b3" y="140.794575"/>
     <use style="fill:#6b8e23;stroke:#6b8e23;" x="238.771423" xlink:href="#meefff5d3b3" y="116.962684"/>
     <use style="fill:#6b8e23;stroke:#6b8e23;" x="271.042299" xlink:href="#meefff5d3b3" y="100.821802"/>
     <use style="fill:#6b8e23;stroke:#6b8e23;" x="228.502499" xlink:href="#meefff5d3b3" y="116.387193"/>
     <use style="fill:#6b8e23;stroke:#6b8e23;" x="179.87166" xlink:href="#meefff5d3b3" y="146.751881"/>
     <use style="fill:#6b8e23;stroke:#6b8e23;" x="176.300911" xlink:href="#meefff5d3b3" y="132.950529"/>
     <use style="fill:#6b8e23;stroke:#6b8e23;" x="161.765961" xlink:href="#meefff5d3b3" y="155.241236"/>
     <use style="fill:#6b8e23;stroke:#6b8e23;" x="217.162364" xlink:href="#meefff5d3b3" y="129.257777"/>
     <use style="fill:#6b8e23;stroke:#6b8e23;" x="222.204622" xlink:href="#meefff5d3b3" y="125.259395"/>
     <use style="fill:#6b8e23;stroke:#6b8e23;" x="257.784511" xlink:href="#meefff5d3b3" y="125.933783"/>
     <use style="fill:#6b8e23;stroke:#6b8e23;" x="229.271098" xlink:href="#meefff5d3b3" y="129.675716"/>
     <use style="fill:#6b8e23;stroke:#6b8e23;" x="227.437005" xlink:href="#meefff5d3b3" y="129.434126"/>
     <use style="fill:#6b8e23;stroke:#6b8e23;" x="202.0703" xlink:href="#meefff5d3b3" y="145.270803"/>
     <use style="fill:#6b8e23;stroke:#6b8e23;" x="190.205971" xlink:href="#meefff5d3b3" y="122.174127"/>
     <use style="fill:#6b8e23;stroke:#6b8e23;" x="187.877033" xlink:href="#meefff5d3b3" y="122.472628"/>
     <use style="fill:#6b8e23;stroke:#6b8e23;" x="194.830281" xlink:href="#meefff5d3b3" y="112.779524"/>
     <use style="fill:#6b8e23;stroke:#6b8e23;" x="183.187928" xlink:href="#meefff5d3b3" y="132.276947"/>
     <use style="fill:#6b8e23;stroke:#6b8e23;" x="194.440242" xlink:href="#meefff5d3b3" y="110.399319"/>
     <use style="fill:#6b8e23;stroke:#6b8e23;" x="183.035079" xlink:href="#meefff5d3b3" y="135.911554"/>
     <use style="fill:#6b8e23;stroke:#6b8e23;" x="181.821764" xlink:href="#meefff5d3b3" y="109.629779"/>
     <use style="fill:#6b8e23;stroke:#6b8e23;" x="206.955716" xlink:href="#meefff5d3b3" y="143.315386"/>
     <use style="fill:#6b8e23;stroke:#6b8e23;" x="266.97281" xlink:href="#meefff5d3b3" y="132.542519"/>
     <use style="fill:#6b8e23;stroke:#6b8e23;" x="241.223618" xlink:href="#meefff5d3b3" y="129.29614"/>
     <use style="fill:#6b8e23;stroke:#6b8e23;" x="185.214915" xlink:href="#meefff5d3b3" y="135.153973"/>
     <use style="fill:#6b8e23;stroke:#6b8e23;" x="211.664384" xlink:href="#meefff5d3b3" y="117.655489"/>
     <use style="fill:#6b8e23;stroke:#6b8e23;" x="199.490838" xlink:href="#meefff5d3b3" y="116.653453"/>
     <use style="fill:#6b8e23;stroke:#6b8e23;" x="173.555633" xlink:href="#meefff5d3b3" y="132.78579"/>
     <use style="fill:#6b8e23;stroke:#6b8e23;" x="195.615555" xlink:href="#meefff5d3b3" y="100.161816"/>
     <use style="fill:#6b8e23;stroke:#6b8e23;" x="160.764554" xlink:href="#meefff5d3b3" y="120.555573"/>
     <use style="fill:#6b8e23;stroke:#6b8e23;" x="187.775441" xlink:href="#meefff5d3b3" y="114.752665"/>
     <use style="fill:#6b8e23;stroke:#6b8e23;" x="238.621874" xlink:href="#meefff5d3b3" y="121.199761"/>
     <use style="fill:#6b8e23;stroke:#6b8e23;" x="235.386284" xlink:href="#meefff5d3b3" y="122.439946"/>
     <use style="fill:#6b8e23;stroke:#6b8e23;" x="235.131554" xlink:href="#meefff5d3b3" y="112.512188"/>
     <use style="fill:#6b8e23;stroke:#6b8e23;" x="205.924725" xlink:href="#meefff5d3b3" y="124.836445"/>
     <use style="fill:#6b8e23;stroke:#6b8e23;" x="198.111362" xlink:href="#meefff5d3b3" y="108.351232"/>
     <use style="fill:#6b8e23;stroke:#6b8e23;" x="167.023283" xlink:href="#meefff5d3b3" y="109.188919"/>
     <use style="fill:#6b8e23;stroke:#6b8e23;" x="196.062813" xlink:href="#meefff5d3b3" y="110.367444"/>
     <use style="fill:#6b8e23;stroke:#6b8e23;" x="177.559344" xlink:href="#meefff5d3b3" y="121.94373"/>
     <use style="fill:#6b8e23;stroke:#6b8e23;" x="177.326163" xlink:href="#meefff5d3b3" y="125.872511"/>
     <use style="fill:#6b8e23;stroke:#6b8e23;" x="197.456414" xlink:href="#meefff5d3b3" y="124.026195"/>
     <use style="fill:#6b8e23;stroke:#6b8e23;" x="196.79901" xlink:href="#meefff5d3b3" y="138.82828"/>
     <use style="fill:#6b8e23;stroke:#6b8e23;" x="181.683659" xlink:href="#meefff5d3b3" y="142.106835"/>
     <use style="fill:#6b8e23;stroke:#6b8e23;" x="177.985646" xlink:href="#meefff5d3b3" y="121.405399"/>
     <use style="fill:#6b8e23;stroke:#6b8e23;" x="204.758699" xlink:href="#meefff5d3b3" y="118.530639"/>
     <use style="fill:#6b8e23;stroke:#6b8e23;" x="154.841052" xlink:href="#meefff5d3b3" y="132.80446"/>
     <use style="fill:#6b8e23;stroke:#6b8e23;" x="185.314529" xlink:href="#meefff5d3b3" y="129.534125"/>
     <use style="fill:#6b8e23;stroke:#6b8e23;" x="233.732069" xlink:href="#meefff5d3b3" y="118.462199"/>
     <use style="fill:#6b8e23;stroke:#6b8e23;" x="185.574988" xlink:href="#meefff5d3b3" y="144.451382"/>
     <use style="fill:#6b8e23;stroke:#6b8e23;" x="187.887905" xlink:href="#meefff5d3b3" y="119.327603"/>
     <use style="fill:#6b8e23;stroke:#6b8e23;" x="187.197063" xlink:href="#meefff5d3b3" y="114.139875"/>
     <use style="fill:#6b8e23;stroke:#6b8e23;" x="218.450506" xlink:href="#meefff5d3b3" y="112.31592"/>
     <use style="fill:#6b8e23;stroke:#6b8e23;" x="146.19141" xlink:href="#meefff5d3b3" y="113.892885"/>
     <use style="fill:#6b8e23;stroke:#6b8e23;" x="212.730808" xlink:href="#meefff5d3b3" y="93.712725"/>
     <use style="fill:#6b8e23;stroke:#6b8e23;" x="182.014441" xlink:href="#meefff5d3b3" y="113.050779"/>
     <use style="fill:#6b8e23;stroke:#6b8e23;" x="176.48205" xlink:href="#meefff5d3b3" y="125.183281"/>
     <use style="fill:#6b8e23;stroke:#6b8e23;" x="185.188025" xlink:href="#meefff5d3b3" y="128.488573"/>
     <use style="fill:#6b8e23;stroke:#6b8e23;" x="210.164633" xlink:href="#meefff5d3b3" y="125.423378"/>
     <use style="fill:#6b8e23;stroke:#6b8e23;" x="220.471289" xlink:href="#meefff5d3b3" y="94.591447"/>
     <use style="fill:#6b8e23;stroke:#6b8e23;" x="199.771001" xlink:href="#meefff5d3b3" y="120.961882"/>
     <use style="fill:#6b8e23;stroke:#6b8e23;" x="221.819417" xlink:href="#meefff5d3b3" y="82.085929"/>
     <use style="fill:#6b8e23;stroke:#6b8e23;" x="187.463897" xlink:href="#meefff5d3b3" y="146.840068"/>
     <use style="fill:#6b8e23;stroke:#6b8e23;" x="171.416825" xlink:href="#meefff5d3b3" y="111.081191"/>
     <use style="fill:#6b8e23;stroke:#6b8e23;" x="174.417497" xlink:href="#meefff5d3b3" y="112.744063"/>
     <use style="fill:#6b8e23;stroke:#6b8e23;" x="151.760249" xlink:href="#meefff5d3b3" y="104.577198"/>
     <use style="fill:#6b8e23;stroke:#6b8e23;" x="223.471961" xlink:href="#meefff5d3b3" y="128.723185"/>
     <use style="fill:#6b8e23;stroke:#6b8e23;" x="190.073177" xlink:href="#meefff5d3b3" y="95.892665"/>
     <use style="fill:#6b8e23;stroke:#6b8e23;" x="216.426905" xlink:href="#meefff5d3b3" y="115.707227"/>
     <use style="fill:#6b8e23;stroke:#6b8e23;" x="233.343737" xlink:href="#meefff5d3b3" y="129.054781"/>
     <use style="fill:#6b8e23;stroke:#6b8e23;" x="172.226724" xlink:href="#meefff5d3b3" y="119.06637"/>
     <use style="fill:#6b8e23;stroke:#6b8e23;" x="188.888051" xlink:href="#meefff5d3b3" y="140.240884"/>
     <use style="fill:#6b8e23;stroke:#6b8e23;" x="171.023802" xlink:href="#meefff5d3b3" y="140.455218"/>
     <use style="fill:#6b8e23;stroke:#6b8e23;" x="176.379375" xlink:href="#meefff5d3b3" y="141.15217"/>
     <use style="fill:#6b8e23;stroke:#6b8e23;" x="185.839051" xlink:href="#meefff5d3b3" y="139.170414"/>
     <use style="fill:#6b8e23;stroke:#6b8e23;" x="169.727338" xlink:href="#meefff5d3b3" y="121.647698"/>
     <use style="fill:#6b8e23;stroke:#6b8e23;" x="201.538578" xlink:href="#meefff5d3b3" y="126.250582"/>
     <use style="fill:#6b8e23;stroke:#6b8e23;" x="153.003164" xlink:href="#meefff5d3b3" y="125.939953"/>
     <use style="fill:#6b8e23;stroke:#6b8e23;" x="151.663219" xlink:href="#meefff5d3b3" y="132.579639"/>
     <use style="fill:#6b8e23;stroke:#6b8e23;" x="162.423694" xlink:href="#meefff5d3b3" y="124.270325"/>
     <use style="fill:#6b8e23;stroke:#6b8e23;" x="213.621929" xlink:href="#meefff5d3b3" y="123.216784"/>
     <use style="fill:#6b8e23;stroke:#6b8e23;" x="234.328612" xlink:href="#meefff5d3b3" y="139.430966"/>
     <use style="fill:#6b8e23;stroke:#6b8e23;" x="288.834425" xlink:href="#meefff5d3b3" y="117.837207"/>
     <use style="fill:#6b8e23;stroke:#6b8e23;" x="193.021092" xlink:href="#meefff5d3b3" y="157.286259"/>
     <use style="fill:#6b8e23;stroke:#6b8e23;" x="148.136946" xlink:href="#meefff5d3b3" y="154.281186"/>
     <use style="fill:#6b8e23;stroke:#6b8e23;" x="145.993907" xlink:href="#meefff5d3b3" y="143.019865"/>
     <use style="fill:#6b8e23;stroke:#6b8e23;" x="181.220924" xlink:href="#meefff5d3b3" y="130.975048"/>
     <use style="fill:#6b8e23;stroke:#6b8e23;" x="168.341722" xlink:href="#meefff5d3b3" y="110.568498"/>
     <use style="fill:#6b8e23;stroke:#6b8e23;" x="194.379019" xlink:href="#meefff5d3b3" y="127.437959"/>
     <use style="fill:#6b8e23;stroke:#6b8e23;" x="206.357722" xlink:href="#meefff5d3b3" y="97.053919"/>
     <use style="fill:#6b8e23;stroke:#6b8e23;" x="164.667085" xlink:href="#meefff5d3b3" y="91.546309"/>
     <use style="fill:#6b8e23;stroke:#6b8e23;" x="180.561788" xlink:href="#meefff5d3b3" y="91.217346"/>
     <use style="fill:#6b8e23;stroke:#6b8e23;" x="176.825712" xlink:href="#meefff5d3b3" y="116.363461"/>
     <use style="fill:#6b8e23;stroke:#6b8e23;" x="187.42967" xlink:href="#meefff5d3b3" y="106.31416"/>
     <use style="fill:#6b8e23;stroke:#6b8e23;" x="170.376078" xlink:href="#meefff5d3b3" y="114.472602"/>
     <use style="fill:#6b8e23;stroke:#6b8e23;" x="211.058419" xlink:href="#meefff5d3b3" y="114.307185"/>
     <use style="fill:#6b8e23;stroke:#6b8e23;" x="200.369699" xlink:href="#meefff5d3b3" y="121.332671"/>
     <use style="fill:#6b8e23;stroke:#6b8e23;" x="169.532261" xlink:href="#meefff5d3b3" y="98.742712"/>
     <use style="fill:#6b8e23;stroke:#6b8e23;" x="181.201625" xlink:href="#meefff5d3b3" y="124.580953"/>
     <use style="fill:#6b8e23;stroke:#6b8e23;" x="168.130662" xlink:href="#meefff5d3b3" y="117.040678"/>
     <use style="fill:#6b8e23;stroke:#6b8e23;" x="187.799733" xlink:href="#meefff5d3b3" y="113.451705"/>
     <use style="fill:#6b8e23;stroke:#6b8e23;" x="186.735638" xlink:href="#meefff5d3b3" y="129.578278"/>
     <use style="fill:#6b8e23;stroke:#6b8e23;" x="219.058907" xlink:href="#meefff5d3b3" y="99.6613"/>
     <use style="fill:#6b8e23;stroke:#6b8e23;" x="202.987735" xlink:href="#meefff5d3b3" y="114.540533"/>
     <use style="fill:#6b8e23;stroke:#6b8e23;" x="171.990332" xlink:href="#meefff5d3b3" y="117.720954"/>
     <use style="fill:#6b8e23;stroke:#6b8e23;" x="175.394163" xlink:href="#meefff5d3b3" y="126.926353"/>
     <use style="fill:#6b8e23;stroke:#6b8e23;" x="217.290323" xlink:href="#meefff5d3b3" y="117.016216"/>
     <use style="fill:#6b8e23;stroke:#6b8e23;" x="195.808157" xlink:href="#meefff5d3b3" y="107.589104"/>
     <use style="fill:#6b8e23;stroke:#6b8e23;" x="252.284573" xlink:href="#meefff5d3b3" y="115.511531"/>
     <use style="fill:#6b8e23;stroke:#6b8e23;" x="216.500291" xlink:href="#meefff5d3b3" y="130.900194"/>
     <use style="fill:#6b8e23;stroke:#6b8e23;" x="198.751449" xlink:href="#meefff5d3b3" y="161.686002"/>
     <use style="fill:#6b8e23;stroke:#6b8e23;" x="154.752096" xlink:href="#meefff5d3b3" y="117.897826"/>
     <use style="fill:#6b8e23;stroke:#6b8e23;" x="182.689639" xlink:href="#meefff5d3b3" y="151.961136"/>
     <use style="fill:#6b8e23;stroke:#6b8e23;" x="193.313076" xlink:href="#meefff5d3b3" y="136.089742"/>
     <use style="fill:#6b8e23;stroke:#6b8e23;" x="201.267325" xlink:href="#meefff5d3b3" y="146.243154"/>
     <use style="fill:#6b8e23;stroke:#6b8e23;" x="184.990867" xlink:href="#meefff5d3b3" y="135.250182"/>
     <use style="fill:#6b8e23;stroke:#6b8e23;" x="288.230425" xlink:href="#meefff5d3b3" y="139.33581"/>
     <use style="fill:#6b8e23;stroke:#6b8e23;" x="242.034894" xlink:href="#meefff5d3b3" y="165.739239"/>
     <use style="fill:#6b8e23;stroke:#6b8e23;" x="235.018025" xlink:href="#meefff5d3b3" y="137.316725"/>
     <use style="fill:#6b8e23;stroke:#6b8e23;" x="257.938617" xlink:href="#meefff5d3b3" y="90.722439"/>
     <use style="fill:#6b8e23;stroke:#6b8e23;" x="270.259009" xlink:href="#meefff5d3b3" y="78.141982"/>
     <use style="fill:#6b8e23;stroke:#6b8e23;" x="209.268619" xlink:href="#meefff5d3b3" y="108.010074"/>
     <use style="fill:#6b8e23;stroke:#6b8e23;" x="193.156338" xlink:href="#meefff5d3b3" y="131.585866"/>
     <use style="fill:#6b8e23;stroke:#6b8e23;" x="154.47814" xlink:href="#meefff5d3b3" y="116.948809"/>
     <use style="fill:#6b8e23;stroke:#6b8e23;" x="172.943464" xlink:href="#meefff5d3b3" y="97.11956"/>
     <use style="fill:#6b8e23;stroke:#6b8e23;" x="143.923466" xlink:href="#meefff5d3b3" y="151.012704"/>
     <use style="fill:#6b8e23;stroke:#6b8e23;" x="195.541067" xlink:href="#meefff5d3b3" y="113.512298"/>
     <use style="fill:#6b8e23;stroke:#6b8e23;" x="207.992618" xlink:href="#meefff5d3b3" y="106.36076"/>
     <use style="fill:#6b8e23;stroke:#6b8e23;" x="216.154193" xlink:href="#meefff5d3b3" y="123.110035"/>
     <use style="fill:#6b8e23;stroke:#6b8e23;" x="188.520118" xlink:href="#meefff5d3b3" y="125.284435"/>
     <use style="fill:#6b8e23;stroke:#6b8e23;" x="187.753642" xlink:href="#meefff5d3b3" y="96.355323"/>
     <use style="fill:#6b8e23;stroke:#6b8e23;" x="249.789449" xlink:href="#meefff5d3b3" y="98.041413"/>
     <use style="fill:#6b8e23;stroke:#6b8e23;" x="254.306403" xlink:href="#meefff5d3b3" y="129.226262"/>
     <use style="fill:#6b8e23;stroke:#6b8e23;" x="246.278254" xlink:href="#meefff5d3b3" y="113.459885"/>
     <use style="fill:#6b8e23;stroke:#6b8e23;" x="284.420393" xlink:href="#meefff5d3b3" y="88.845677"/>
     <use style="fill:#6b8e23;stroke:#6b8e23;" x="288.834425" xlink:href="#meefff5d3b3" y="101.947426"/>
     <use style="fill:#6b8e23;stroke:#6b8e23;" x="283.507145" xlink:href="#meefff5d3b3" y="127.597439"/>
     <use style="fill:#6b8e23;stroke:#6b8e23;" x="274.760259" xlink:href="#meefff5d3b3" y="129.226262"/>
     <use style="fill:#6b8e23;stroke:#6b8e23;" x="209.822527" xlink:href="#meefff5d3b3" y="152.895595"/>
     <use style="fill:#6b8e23;stroke:#6b8e23;" x="275.279215" xlink:href="#meefff5d3b3" y="134.463272"/>
     <use style="fill:#6b8e23;stroke:#6b8e23;" x="247.230905" xlink:href="#meefff5d3b3" y="133.132275"/>
     <use style="fill:#6b8e23;stroke:#6b8e23;" x="237.803431" xlink:href="#meefff5d3b3" y="98.737221"/>
     <use style="fill:#6b8e23;stroke:#6b8e23;" x="181.201625" xlink:href="#meefff5d3b3" y="70.655833"/>
     <use style="fill:#6b8e23;stroke:#6b8e23;" x="174.557079" xlink:href="#meefff5d3b3" y="232.213753"/>
     <use style="fill:#6b8e23;stroke:#6b8e23;" x="159.854721" xlink:href="#meefff5d3b3" y="178.940953"/>
     <use style="fill:#6b8e23;stroke:#6b8e23;" x="140.997506" xlink:href="#meefff5d3b3" y="188.725753"/>
     <use style="fill:#6b8e23;stroke:#6b8e23;" x="192.874529" xlink:href="#meefff5d3b3" y="146.107513"/>
     <use style="fill:#6b8e23;stroke:#6b8e23;" x="166.808412" xlink:href="#meefff5d3b3" y="140.236633"/>
     <use style="fill:#6b8e23;stroke:#6b8e23;" x="158.531533" xlink:href="#meefff5d3b3" y="177.853753"/>
     <use style="fill:#6b8e23;stroke:#6b8e23;" x="158.106276" xlink:href="#meefff5d3b3" y="118.710073"/>
     <use style="fill:#6b8e23;stroke:#6b8e23;" x="197.998972" xlink:href="#meefff5d3b3" y="146.107513"/>
     <use style="fill:#6b8e23;stroke:#6b8e23;" x="219.374613" xlink:href="#meefff5d3b3" y="60.001273"/>
     <use style="fill:#6b8e23;stroke:#6b8e23;" x="194.314465" xlink:href="#meefff5d3b3" y="151.760953"/>
     <use style="fill:#6b8e23;stroke:#6b8e23;" x="204.999225" xlink:href="#meefff5d3b3" y="176.122387"/>
     <use style="fill:#6b8e23;stroke:#6b8e23;" x="189.295225" xlink:href="#meefff5d3b3" y="138.654757"/>
     <use style="fill:#6b8e23;stroke:#6b8e23;" x="126.519492" xlink:href="#meefff5d3b3" y="123.741091"/>
     <use style="fill:#6b8e23;stroke:#6b8e23;" x="201.012825" xlink:href="#meefff5d3b3" y="144.346249"/>
     <use style="fill:#6b8e23;stroke:#6b8e23;" x="176.409892" xlink:href="#meefff5d3b3" y="104.244877"/>
     <use style="fill:#6b8e23;stroke:#6b8e23;" x="190.462958" xlink:href="#meefff5d3b3" y="109.977139"/>
    </g>
   </g>
   <g id="line2d_7">
    <path clip-path="url(#p17e16a551a)" d="M 72.481625 233.300953 
L 289.921625 15.860953 
" style="fill:none;stroke:#000000;stroke-dasharray:5.55,2.4;stroke-dashoffset:0;stroke-width:1.5;"/>
   </g>
   <g id="patch_3">
    <path d="M 72.481625 233.300953 
L 72.481625 15.860953 
" style="fill:none;stroke:#262626;stroke-linecap:square;stroke-linejoin:miter;stroke-width:2.5;"/>
   </g>
   <g id="patch_4">
    <path d="M 72.481625 233.300953 
L 291.008825 233.300953 
" style="fill:none;stroke:#262626;stroke-linecap:square;stroke-linejoin:miter;stroke-width:2.5;"/>
   </g>
   <g id="legend_1"/>
  </g>
 </g>
 <defs>
  <clipPath id="p17e16a551a">
   <rect height="217.44" width="218.5272" x="72.481625" y="15.860953"/>
  </clipPath>
 </defs>
</svg>
